<svg id="Layer_1" data-name="Layer 1" xmlns="http://www.w3.org/2000/svg" viewBox="0 0 50 50"><defs><style>.cls-1{fill:#293c8f;}.cls-2{fill:#bf8b2c;}</style></defs><path class="cls-1" d="M34.13,8.2H20a2.43,2.43,0,0,0-2.56,2,4.54,4.54,0,0,0-.08,1v21.2c.43-.46.87-.92,1.32-1.36q0-9.91,0-19.81a4,4,0,0,1,0-.69,1,1,0,0,1,1-.93c.29,0,.58,0,.87,0H34a1.43,1.43,0,0,1,1.53,1.53q0,3.71,0,7.41l1.3-.69V10.93A2.75,2.75,0,0,0,34.13,8.2Zm1.44,17.42v1.26c0,2.22,0,4.44,0,6.67v.35H26.13c-.44.45-.88.9-1.3,1.36h12V24.65Z"/><path class="cls-1" d="M20.18,11.85v5H34v-5Zm7.52,3.77a3.06,3.06,0,0,1-.68,0V14.23l-.53,0a1,1,0,0,1,0-.49c.34,0,.62-.14.68-.53a1.87,1.87,0,0,1,.53,0Zm2.78,0h-2a.88.88,0,0,1,.23-.67,2.14,2.14,0,0,1,.57-.46l.26-.17c.17-.11.3-.23.23-.45a.24.24,0,0,0-.27-.16c-.24,0-.31.16-.34.36a.7.7,0,0,1,0,.12h-.57a.84.84,0,0,1,.7-1,1.61,1.61,0,0,1,.58,0,.67.67,0,0,1,.59.49.85.85,0,0,1-.2.86c-.2.2-.47.3-.67.53h.92A1.83,1.83,0,0,1,30.48,15.62Zm2.23-.57a.73.73,0,0,1-.61.58,1.39,1.39,0,0,1-.9-.05.76.76,0,0,1-.46-.86,2.11,2.11,0,0,1,.56,0c.16.36.29.46.53.39s.22-.22.17-.39-.29-.11-.44-.14a.89.89,0,0,1,0-.43c.16-.08.44.07.49-.23,0-.13-.08-.19-.19-.22a.35.35,0,0,0-.46.28,2.25,2.25,0,0,1-.58,0c0-.55.44-.92,1.08-.84s.78.33.77.73a.61.61,0,0,1-.25.45A.61.61,0,0,1,32.71,15.05Z"/><path class="cls-1" d="M20.19,20.46V18.8H26.3v1.66Z"/><polygon class="cls-1" points="34.02 19.35 34.02 18.8 27.91 18.8 27.91 20.46 32.13 20.46 34.02 19.35"/><path class="cls-1" d="M30.16,30.05v1.86h-2Q29.14,31,30.16,30.05Z"/><path class="cls-1" d="M22.72,25.65v1.58c-.39.33-.77.66-1.14,1H20.27V25.65Z"/><path class="cls-1" d="M24.65,25.65l-.72.58v-.58Z"/><path class="cls-1" d="M34,26.86v1.37H32.27C32.83,27.77,33.39,27.31,34,26.86Z"/><path class="cls-1" d="M31.52,31.89V29.32H34v2.57Z"/><path class="cls-1" d="M20.27,22h2.44v2.57H20.27Z"/><rect class="cls-1" x="23.92" y="21.97" width="2.45" height="2.57"/><path class="cls-1" d="M29.74,22c-.68.45-1.36.92-2,1.39V22Z"/><path class="cls-2" d="M40.63,3.23V16c-.61.28-1.23.57-1.85.88V5.09H15.25V34.7c-.62.72-1.22,1.46-1.81,2.21l0,0V11.25H8.75v22c-.63-.41-1.25-.78-1.86-1.13V9.39h6.5V3.23Z"/><path class="cls-1" d="M40.63,22.06V40.61h-6.5v6.16H15.83c.41-.63.82-1.25,1.24-1.86H32.28v-4.3h-12q.73-.95,1.5-1.86H38.78V23.29Z"/><path class="cls-2" d="M45.27,17.52a82.93,82.93,0,0,0-8.71,5.12q-.8.52-1.56,1.08c-.54.38-1.07.77-1.6,1.16-.37.28-.73.55-1.09.84l-1.27,1-.12.1c-.4.32-.79.65-1.18,1l-.81.69-1.19,1.07-.57.53c-.34.31-.68.64-1,1l-.4.39c-.4.39-.79.78-1.17,1.18-.23.24-.46.47-.68.71-.54.58-1.08,1.17-1.6,1.76-.35.4-.7.8-1,1.21-.83,1-1.65,2-2.44,3.06-.4.54-.8,1.08-1.19,1.63-.87,1.22-1.7,2.48-2.51,3.77-.33.53-.66,1.08-1,1.62h-.08q-.42-.8-.87-1.56a43.94,43.94,0,0,0-3.44-5c-.53-.68-1.09-1.35-1.65-2C7,36.61,5.89,35.4,4.73,34.21c1.13.52,2.24,1.07,3.32,1.68.55.31,1.09.64,1.62,1a24.58,24.58,0,0,1,4.09,3.32l.2.21c.43-.64.88-1.26,1.33-1.88S16.43,37,17,36.32c.35-.43.72-.86,1.08-1.28s.94-1,1.42-1.55,1.23-1.26,1.86-1.87,1-.94,1.52-1.39,1.06-.94,1.61-1.39L25.59,28l.06-.05c.42-.33.85-.66,1.29-1l.75-.55c.4-.29.8-.58,1.21-.85l1.36-.91c.37-.24.74-.48,1.12-.71l.85-.52,1.1-.65c.54-.31,1.08-.61,1.61-.89s1.05-.56,1.57-.82A41.28,41.28,0,0,1,45.27,17.52Z"/></svg>