<svg id="Layer_1" data-name="Layer 1" xmlns="http://www.w3.org/2000/svg" viewBox="0 0 348.72 118.21"><defs><style>.cls-1{fill:#fff;}.cls-2,.cls-4{fill:#293c8f;}.cls-3,.cls-5,.cls-6{fill:#cc952b;}.cls-4{font-size:38px;letter-spacing:0.01em;}.cls-4,.cls-6{font-family:MicrosoftYaHeiUI-Bold, Microsoft YaHei UI;font-weight:700;}.cls-5{stroke:#fff;stroke-miterlimit:10;}.cls-6{font-size:22px;letter-spacing:0.05em;}</style></defs><rect class="cls-1" width="348.72" height="118.21"/><path class="cls-2" d="M73.07,32.87H51A3.8,3.8,0,0,0,47,36a6.9,6.9,0,0,0-.12,1.51q0,16.55,0,33.08c.67-.71,1.35-1.42,2-2.12V37.53a7.6,7.6,0,0,1,0-1.07A1.6,1.6,0,0,1,50.52,35c.45,0,.91,0,1.36,0h21a2.23,2.23,0,0,1,2.4,2.38V49c.67-.37,1.35-.73,2-1.08V37.14A4.3,4.3,0,0,0,73.07,32.87Zm2.25,27.2V73H60.59q-1,1.05-2,2.13h18.8V58.57C76.67,59.06,76,59.56,75.32,60.07Z"/><path class="cls-2" d="M51.3,38.58v7.77H72.9V38.58ZM63,44.46a4.6,4.6,0,0,1-1.06,0v-2.2l-.82,0a1.63,1.63,0,0,1,0-.76c.53-.05,1-.23,1.06-.84a2.81,2.81,0,0,1,.82,0Zm4.34,0H64.23a1.34,1.34,0,0,1,.35-1,3.44,3.44,0,0,1,.89-.72l.41-.27c.27-.16.46-.36.36-.7a.38.38,0,0,0-.43-.25c-.36,0-.48.26-.52.57,0,.05,0,.1-.05.18h-.88a1.3,1.3,0,0,1,1.09-1.61,2.48,2.48,0,0,1,.9,0,1.08,1.08,0,0,1,.92.78A1.32,1.32,0,0,1,67,42.74c-.3.32-.73.47-1,.83h1.44A3,3,0,0,1,67.37,44.47Zm3.49-.9a1.16,1.16,0,0,1-1,.92,2.2,2.2,0,0,1-1.41-.09,1.19,1.19,0,0,1-.72-1.34,3.25,3.25,0,0,1,.88,0c.24.56.45.71.83.6s.34-.35.26-.61-.45-.17-.69-.22a1.64,1.64,0,0,1,0-.66c.25-.13.69.1.76-.37,0-.19-.12-.3-.29-.34a.55.55,0,0,0-.72.44,3.87,3.87,0,0,1-.9,0c-.07-.85.69-1.44,1.68-1.31.79.09,1.22.51,1.21,1.13a.93.93,0,0,1-.4.7A1,1,0,0,1,70.86,43.57Z"/><path class="cls-2" d="M51.32,52V49.43h9.54V52Z"/><polygon class="cls-2" points="72.9 50.29 72.9 49.43 63.36 49.43 63.36 52.02 69.96 52.02 72.9 50.29"/><path class="cls-2" d="M66.88,67v2.9H63.74C64.77,68.91,65.81,67.94,66.88,67Z"/><path class="cls-2" d="M55.26,60.12v2.47c-.6.51-1.19,1-1.78,1.55h-2v-4Z"/><path class="cls-2" d="M58.27,60.12l-1.12.9v-.9Z"/><path class="cls-2" d="M72.81,62v2.15H70.17C71,63.42,71.92,62.71,72.81,62Z"/><path class="cls-2" d="M69,69.86v-4h3.81v4Z"/><path class="cls-2" d="M51.44,54.37h3.81v4H51.44Z"/><rect class="cls-2" x="57.14" y="54.38" width="3.82" height="4.02"/><path class="cls-2" d="M66.23,54.38c-1.08.71-2.13,1.43-3.17,2.16V54.38Z"/><path class="cls-3" d="M83.23,25.13V45c-1,.43-1.92.89-2.9,1.37V28H43.6V74.25q-1.44,1.69-2.82,3.45l-.08-.07v-40H33.45V72c-1-.63-2-1.22-2.9-1.76V34.74H40.7V25.13Z"/><path class="cls-2" d="M83.23,54.52V83.47H73.08v9.62H44.51c.63-1,1.28-2,1.94-2.9H70.19V83.47H51.38c.77-1,1.55-1.94,2.34-2.89H80.33V56.44C81.29,55.79,82.25,55.15,83.23,54.52Z"/><path class="cls-3" d="M90.46,47.16a131.09,131.09,0,0,0-13.6,8q-1.23.83-2.43,1.68c-.84.6-1.67,1.21-2.5,1.82-.57.43-1.14.86-1.7,1.3s-1.33,1-2,1.57l-.18.16c-.63.5-1.24,1-1.85,1.54L65,64.3c-.62.55-1.24,1.1-1.86,1.67l-.89.82c-.53.5-1.06,1-1.58,1.51l-.63.61c-.61.61-1.22,1.23-1.82,1.86-.36.36-.71.73-1.06,1.1-.84.9-1.68,1.82-2.5,2.75-.55.62-1.08,1.25-1.61,1.88-1.31,1.56-2.58,3.15-3.82,4.79-.63.84-1.25,1.69-1.85,2.54-1.36,1.91-2.66,3.87-3.92,5.88-.52.84-1,1.68-1.53,2.54h-.13c-.43-.83-.89-1.64-1.36-2.44A69.08,69.08,0,0,0,35,82c-.84-1.06-1.7-2.1-2.59-3.12-1.69-2-3.45-3.84-5.26-5.69,1.76.8,3.49,1.66,5.17,2.61.86.49,1.7,1,2.53,1.54a36.65,36.65,0,0,1,6.38,5.18l.31.33c.68-1,1.38-2,2.09-2.93Q45,78.18,46.38,76.5c.55-.67,1.12-1.33,1.69-2q1.09-1.24,2.22-2.43c1-1,1.92-2,2.9-2.91.78-.75,1.57-1.47,2.37-2.18s1.66-1.46,2.51-2.16c.55-.46,1.11-.91,1.67-1.35l.1-.07c.66-.53,1.33-1,2-1.54L63,61c.62-.45,1.25-.89,1.88-1.32s1.41-.95,2.12-1.41,1.16-.75,1.75-1.11c.44-.28.89-.55,1.34-.82l1.71-1c.84-.48,1.68-1,2.51-1.4l2.44-1.28C82.78,49.61,88,47.64,90.46,47.16Z"/><text class="cls-4" transform="translate(98.61 60.21)"><tspan xml:space="preserve">B  OK SURE</tspan></text><path class="cls-5" d="M154.18,47.1a5.85,5.85,0,0,0-.16,1,14.41,14.41,0,0,1-3,6.81c-.09.11-.15.12-.28.06a16.87,16.87,0,0,0-3.54-1.41c-.15,0-.16-.1-.13-.24a25,25,0,0,0,.85-4.45,19.59,19.59,0,0,0,.13-2.17c0-.22,0-.29.28-.29h5.85Z"/><path class="cls-5" d="M154.18,45.42h-5.9c-.16,0-.23,0-.23-.21a26.25,26.25,0,0,0-1-6.65c-.06-.2,0-.25.17-.3a16.46,16.46,0,0,0,3.44-1.37c.17-.09.24-.06.35.09a14.3,14.3,0,0,1,2.55,4.87,12.67,12.67,0,0,1,.52,2.81s.06.09.06.14Z"/><path class="cls-5" d="M128.7,46.43h2.84c.17,0,.24,0,.24.22a26.1,26.1,0,0,0,1,6.63c.06.21,0,.26-.18.32A16.51,16.51,0,0,0,129.15,55c-.18.1-.27.06-.38-.09A14.34,14.34,0,0,1,126.24,50a14.88,14.88,0,0,1-.59-3.37c0-.2.07-.22.24-.22Z"/><path class="cls-5" d="M128.71,45.42c-.94,0-1.87,0-2.81,0-.23,0-.25-.07-.24-.27a14.38,14.38,0,0,1,3.16-8.22c.09-.11.15-.13.27-.06a16.59,16.59,0,0,0,3.51,1.4c.16,0,.2.1.15.27a26.75,26.75,0,0,0-.9,5.09q-.06.78-.06,1.56c0,.19-.06.23-.24.23Z"/><path class="cls-5" d="M136.11,46.43h3.06c.21,0,.25.06.25.25,0,1.89,0,3.79,0,5.69,0,.2-.06.25-.25.25a24.46,24.46,0,0,0-5.12.61c-.19,0-.28,0-.34-.21a26,26,0,0,1-.93-6.32c0-.22.06-.27.27-.27Z"/><path class="cls-5" d="M143.74,46.43h3.06c.21,0,.25.06.25.26a26.21,26.21,0,0,1-1,6.4c0,.19-.15.17-.28.14a24.37,24.37,0,0,0-2.82-.46,18.11,18.11,0,0,0-2.33-.15c-.21,0-.26-.06-.26-.27,0-1.89,0-3.77,0-5.66,0-.21.06-.26.27-.26Z"/><path class="cls-5" d="M136.1,45.42H133c-.18,0-.23,0-.23-.23a26.45,26.45,0,0,1,.95-6.43c0-.13.09-.18.23-.15a26.33,26.33,0,0,0,3.95.59c.44,0,.87,0,1.31,0,.16,0,.2.06.2.21,0,1.92,0,3.84,0,5.75,0,.2-.08.21-.23.21Z"/><path class="cls-5" d="M143.7,45.42h-3c-.18,0-.26,0-.26-.24,0-1.89,0-3.79,0-5.69,0-.18,0-.23.22-.24a26.34,26.34,0,0,0,5.23-.64c.15,0,.19,0,.23.15a25.73,25.73,0,0,1,.84,4.59c.05.62.1,1.23.11,1.84,0,.19-.05.23-.23.23Z"/><path class="cls-5" d="M134.11,37.62A11.85,11.85,0,0,1,137,32.87a4.77,4.77,0,0,1,2.15-1.17c.19,0,.27,0,.27.21q0,3.06,0,6.11c0,.17,0,.25-.22.24A26.65,26.65,0,0,1,134.11,37.62Z"/><path class="cls-5" d="M140.42,35c0-1,0-2,0-3,0-.22,0-.28.28-.23a5.23,5.23,0,0,1,2.71,1.75,12.76,12.76,0,0,1,2.28,4c0,.14,0,.14-.12.16a22.93,22.93,0,0,1-3.29.5l-1.61.1c-.2,0-.25,0-.24-.24Z"/><path class="cls-5" d="M139.39,60.21a5.13,5.13,0,0,1-3.08-1.93,12.88,12.88,0,0,1-2.14-3.87c-.06-.16,0-.19.12-.22a26.12,26.12,0,0,1,4.91-.57c.13,0,.22,0,.22.18q0,3.16,0,6.34Z"/><path class="cls-5" d="M140.42,60.21v-.33c0-2,0-4,0-5.92,0-.26,0-.35.34-.34a27.48,27.48,0,0,1,4.79.57c.11,0,.2,0,.13.19a11.5,11.5,0,0,1-2.83,4.6A4.5,4.5,0,0,1,140.42,60.21Z"/><path class="cls-5" d="M136.32,59.76a14,14,0,0,1-6.71-3.92A17.66,17.66,0,0,1,133,54.52c.17-.05.19,0,.23.17a12.75,12.75,0,0,0,1.59,3.2A15.14,15.14,0,0,0,136.32,59.76Z"/><path class="cls-5" d="M143.56,32.13A14,14,0,0,1,150.22,36a14.36,14.36,0,0,1-1.75.8c-.5.19-1,.35-1.52.51-.18.05-.25,0-.31-.16a12.59,12.59,0,0,0-2-3.82C144.26,32.93,143.91,32.54,143.56,32.13Z"/><path class="cls-5" d="M136.3,32.15a17.08,17.08,0,0,0-1.25,1.45,12.18,12.18,0,0,0-1.82,3.48c-.08.26-.18.3-.44.22a19.34,19.34,0,0,1-3-1.16c-.17-.08-.23-.12-.06-.28a14.33,14.33,0,0,1,6.26-3.7A.35.35,0,0,1,136.3,32.15Z"/><path class="cls-5" d="M150.22,55.84a14.08,14.08,0,0,1-6.7,3.92,19,19,0,0,0,1.31-1.54,12.63,12.63,0,0,0,1.81-3.52c0-.12.06-.22.24-.17A17.14,17.14,0,0,1,150.22,55.84Z"/><text class="cls-6" transform="translate(159.25 87.68)"><tspan xml:space="preserve">GL   BAL</tspan></text><path class="cls-3" d="M198,77.68h2.28v.27c-.49.39-1,.77-1.48,1.13l-1.35,1V77.68Z"/><path class="cls-3" d="M200.89,74.92h3v.27l-1.28,1c-.56.43-1.12.86-1.69,1.28Z"/><path class="cls-3" d="M200.22,78.75a.07.07,0,0,1,0,0,4.86,4.86,0,0,1,0,.54c0,.42,0,.83,0,1.24A24.59,24.59,0,0,1,190,84.45h0l1.43-.5c.85-.33,1.67-.7,2.48-1.1a33.83,33.83,0,0,0,3.75-2.25l.94-.65C199.16,79.56,199.68,79.15,200.22,78.75Z"/><path class="cls-3" d="M210.6,70.63a1.49,1.49,0,0,1,.13.39c0,.13.08.26.11.39s.07.26.1.39.05.26.08.4,0,.26.07.39,0,.27,0,.4,0,.27,0,.4l0,.41c0,.13,0,.27,0,.4s0,.19,0,.29,0,.2,0,.29a2.71,2.71,0,0,1,0,.29,2.64,2.64,0,0,1,0,.29,2.64,2.64,0,0,1,0,.29l0,.29c0,.1,0,.2,0,.29s0,.19,0,.29,0,.19-.05.29l-.06.28c0,.1-.05.19-.07.28s-.05.19-.07.29l-.09.28a2.76,2.76,0,0,1-.08.27l-.1.28c0,.09-.06.18-.1.27s-.07.18-.11.27-.07.18-.11.27l-.12.26-.13.27-.13.25-.14.26-.15.25-.15.25-.16.24-.16.24-.17.24-.18.23-.18.23c-.06.08-.13.15-.19.22s-.13.15-.19.22l-.2.22a2.18,2.18,0,0,1-.22.21c0-.83,0-1.66,0-2.49a7.11,7.11,0,0,1,.55-.68l.15-.18.14-.19.14-.19.13-.19.13-.2.12-.19.12-.2.12-.21a1.28,1.28,0,0,0,.11-.2,2.12,2.12,0,0,0,.11-.21,1708831504223.24,1708831504223.24,0,0,1,.2-.42,1.47,1.47,0,0,0,.1-.22l.09-.21a2050983969619.28,2050983969619.28,0,0,1,.16-.44,2,2,0,0,0,.08-.22,1.87,1.87,0,0,0,.07-.22,2,2,0,0,0,.07-.23l.06-.22.06-.23c0-.08,0-.15,0-.23s0-.15.05-.23,0-.15,0-.23a1.57,1.57,0,0,0,0-.23l0-.23,0-.23,0-.24c0-.07,0-.15,0-.23s0-.15,0-.23a1.93,1.93,0,0,1,0-.24V72.8c0-.5,0-1-.08-1.52C210.66,71.06,210.62,70.85,210.6,70.63Z"/><path class="cls-3" d="M204.51,72h2.91c0,.72,0,1.45,0,2.18V79c0,1.18,0,2.37,0,3.55V84.3c0,.3,0,.61,0,.92a1.58,1.58,0,0,1-.42.27,1,1,0,0,0,.27-.49,2.68,2.68,0,0,0,0-.49V80.16c0-.46.06-.89-.3-1.24a.92.92,0,0,0-.45-.25,3.49,3.49,0,0,0-.79,0h-1.23Z"/><path class="cls-3" d="M203.7,78.87h1.93a4,4,0,0,1,.85,0,.65.65,0,0,1,.36.2.73.73,0,0,1,.22.4,3.35,3.35,0,0,1,0,.55v4.57a.9.9,0,0,1-.26.73,1.08,1.08,0,0,1-.85.23h-2.32a4.51,4.51,0,0,1-.9,0,.76.76,0,0,1-.4-.2.85.85,0,0,1-.25-.64c0-1.15,0-2.3,0-3.45V80.15a4,4,0,0,1,0-.6.82.82,0,0,1,.23-.44,1.13,1.13,0,0,1,.87-.24Z"/><path class="cls-1" d="M205.55,81.17h1v.93h-1Z"/><path class="cls-1" d="M206.22,82.57h.3v1h-1v-.94Z"/><path class="cls-1" d="M202.73,82.57h1v.93h-1C202.72,83.2,202.73,82.88,202.73,82.57Z"/><path class="cls-1" d="M202.73,81.16h1v.94h-1Z"/><path class="cls-1" d="M205.55,84h1v1h-1Z"/><path class="cls-1" d="M202.73,84h1v1h-1Z"/><path class="cls-1" d="M204.14,81.16h1v.94h-1Z"/><path class="cls-1" d="M204.14,84h1v.94h-1Z"/><path class="cls-1" d="M205,82.57s.07,0,.1,0a7.13,7.13,0,0,1,0,.93h-1c0-.15,0-.74,0-.93Z"/><path class="cls-1" d="M203.07,79.53c1.14,0,2.31,0,3.45,0v1.25h-3.8V79.53Z"/><path class="cls-2" d="M201.07,68.45q.3,0,.6,0h.44l.45,0a3.32,3.32,0,0,1,.44.06l.44.07.43.1.43.12.43.14.41.15.18.08.17.07.18.08.17.08.17.09.17.08.16.1.17.09.16.1.16.1.16.1.16.11.15.11.16.11.15.12.15.12.14.12.15.12.14.13.14.13.13.13.14.13.13.14.13.14.12.14.13.15.12.14.12.15.11.15.11.16.11.15.11.16a6.41,6.41,0,0,1,.54.91,8.27,8.27,0,0,1-.72-.73c-.28-.27-.56-.53-.85-.78s-.6-.48-.92-.7A9.6,9.6,0,0,0,200.71,70l-.22,0-.22,0-.22,0-.22.06-.22.07-.21.07-.22.07-.21.08-.21.09-.21.09-.2.09-.21.11-.2.1-.19.11-.2.12-.19.12-.19.13-.19.13-.18.13-.18.14-.17.14-.17.15-.17.15-.17.16c-.05,0-.1.11-.16.16l-.15.17-.15.16-.15.18-.15.17-.14.18-.13.18-.13.19a6.73,6.73,0,0,0-.44.73c-.14.25-.26.5-.38.76l-.06.16-.06.16-.06.16s0,.1-.05.16a1233133272327.17,1233133272327.17,0,0,1-.1.32s0,.11,0,.16,0,.11,0,.16,0,.11,0,.17l0,.16c0,.06,0,.11,0,.17a1,1,0,0,0,0,.17l0,.16a1061904712141.61,1061904712141.61,0,0,1,0,.34s0,.11,0,.17,0,.11,0,.16,0,.12,0,.17a1,1,0,0,1,0,.17v.34a1,1,0,0,0,0,.17v.17a.86.86,0,0,1,0,.16c0,.06,0,.12,0,.17s0,.11,0,.17l0,.17a1.11,1.11,0,0,0,0,.17l0,.16,0,.17,0,.16a1,1,0,0,0,0,.17,8.6,8.6,0,0,0,.48,1.46c-.54.26-1.17.6-1.73.8a10.62,10.62,0,0,1-.89-3.67c0-.08,0-.17,0-.25s0-.17,0-.25a2,2,0,0,1,0-.25v-.25c0-.09,0-.17,0-.25a2,2,0,0,1,0-.25,2,2,0,0,1,0-.25l0-.25a2.17,2.17,0,0,0,0-.25c0-.08,0-.16.05-.25a2,2,0,0,1,0-.24c0-.08,0-.16.05-.25a2.17,2.17,0,0,1,.07-.24l.06-.24.08-.24a2.25,2.25,0,0,1,.08-.24L192,75l.09-.24a11191771240630.54,11191771240630.54,0,0,1,.2-.46l.11-.22.12-.22.12-.23.12-.21.13-.22c0-.07.09-.14.14-.21s.09-.14.14-.21l.14-.2.15-.2.16-.2c.05-.06.1-.13.16-.19l.16-.19.17-.19.18-.18.17-.18.19-.17a1.54,1.54,0,0,1,.19-.17l.19-.17.19-.15.2-.16.21-.15.21-.14.21-.14.21-.14.22-.12.22-.13.22-.11.23-.12.23-.1.23-.1.24-.1.23-.08.24-.09.24-.07.25-.07.24-.07.25,0,.24-.06.25,0,.25,0,.25,0,.25,0,.26,0Z"/><path class="cls-2" d="M211.51,75.22a4.44,4.44,0,0,1,.3.89,9.81,9.81,0,0,1-.13,5.45,10.69,10.69,0,0,1-5.09,6.18c-.29.15-.59.29-.89.42s-.62.25-.93.35l-.19.06-.2.05-.19,0-.2,0-.19,0-.2,0-.2,0-.2,0-.19,0-.2,0-.2,0-.2,0H201l-.2,0h-.2l-.2,0-.2,0-.2,0-.2,0-.19,0-.2,0-.2,0-.19,0-.2,0-.19-.06a1.06,1.06,0,0,1-.19-.06l-.17,0-.16,0-.16-.06-.16-.06-.16-.07-.16-.06-.15-.07-.16-.07-.15-.08-.16-.07-.15-.08-.15-.09-.15-.08-.15-.09-.14-.09-.15-.09-.14-.09-.14-.1-.14-.1-.14-.1-.13-.11-.14-.1-.13-.11-.13-.11-.13-.11-.13-.12-.12-.12-.13-.12-.12-.12-.12-.12a.69.69,0,0,1-.11-.13l-.12-.12c-.18-.21-.36-.42-.52-.64s-.2-.28-.31-.41a25.59,25.59,0,0,0,2.57-.82l.68-.27.42-.18v2.19c.22.15.44.3.67.44,0-1,0-2,0-2.94.59-.3,1.18-.58,1.75-.92.21-.12.43-.25.64-.39s.3-.2.46-.28v4c0,.49,0,1,0,1.49l.67,0V78.26c1-.79,2-1.5,3-2.29,0,.89,0,1.78,0,2.67h-.63a1.32,1.32,0,0,0-1,.3,1.08,1.08,0,0,0-.32.85v4.6a3.72,3.72,0,0,0,0,.58,1,1,0,0,0,.29.54,1.09,1.09,0,0,0,.88.29h.72v1a4.29,4.29,0,0,0,.7-.2v-.84c.44,0,.87,0,1.3,0,.21,0,.43,0,.63,0a1,1,0,0,0,.29-.08l.32-.23a1.58,1.58,0,0,0,.42-.27l.2-.15.19-.16.19-.16.19-.16.18-.17.18-.17.17-.18.17-.18.16-.19a1.46,1.46,0,0,0,.16-.19l.16-.19.15-.2.14-.2a2.43,2.43,0,0,0,.14-.2l.14-.21.13-.21.12-.22a1.13,1.13,0,0,0,.12-.21l.12-.22c0-.08.07-.15.11-.22s.07-.15.1-.23a1.6,1.6,0,0,0,.1-.23l.09-.23.09-.23a2.09,2.09,0,0,0,.08-.23l.08-.24c0-.08,0-.16.07-.24l.06-.23.06-.25a2117630090299,2117630090299,0,0,0,.1-.48,1.87,1.87,0,0,0,0-.25c0-.21.06-.42.09-.63s0-.43.05-.65,0-.43,0-.64,0-.43,0-.65A7.18,7.18,0,0,0,211.51,75.22Z"/><rect class="cls-2" x="98.61" y="79.32" width="52.82" height="0.5"/><rect class="cls-2" x="266.77" y="79.32" width="54.76" height="0.5"/></svg>